<svg xmlns="http://www.w3.org/2000/svg" xmlns:xlink="http://www.w3.org/1999/xlink" viewBox="-50 -50 100 100"><rect x="-50" y="-50" width="100" height="100" rx="4" fill="#f90"/><rect x="-50" y="-50" width="50" height="50" rx="4" fill="#ffb13b"/><rect width="50" height="50" rx="4" fill="#de8500"/><use stroke="#f90" stroke-width="22.6" xlink:href="#a"/><circle r="26"/><use stroke="#000" stroke-width="12" xlink:href="#a"/><g id="a"><g id="d"><g id="c"><circle id="b" cy="-31.6" r="7.1" fill="#fff"/><path d="M0 31.6v-63.2" stroke="#fff" stroke-width="10"/><use y="63.2" xlink:href="#b"/></g><use transform="rotate(90)" xlink:href="#c"/></g><use transform="rotate(45)" xlink:href="#d"/></g><path d="M44.68 0v40c0 3.333-1.667 5-5 5H-39.7c-3.333 0-5-1.667-5-5V0"/><path d="M36 4.21c2.9 0 5.3 2.4 5.3 5.3v18c-27.6-3.4-54.9-8-82-7.7V9.61c0-2.93 2.4-5.3 5.3-5.3z" fill="#3f3f3f"/><use stroke="#000" stroke-width="7.4" xlink:href="#e"/><g stroke="#fff" stroke-width="6.4"><g id="e"><path fill="none" d="M-31.74 31.17a8.26 8.26 0 1 0 8.26-8.26 8.26 8.26 0 1 1 8.26-8.26M23.23 23h8.288v8.26a8.26 8.26 0 0 1-16.52 0V14.74a8.26 8.26 0 0 1 16.52 0"/><g stroke-width=".5" stroke="#000"><path d="M4.76 3h6.83L3.35 42.8H-3.5L-11.76 3h6.85l4.84 23.3z" fill="#fff"/><path d="M23.23 19.55v6.9m4.838-11.71h6.9m-70.16 16.43h6.9m9.62-16.52h6.9" stroke-linecap="square"/></g></g></g></svg>
